<?xml version="1.0" standalone="no"?>
<!DOCTYPE svg PUBLIC "-//W3C//DTD SVG 20010904//EN"
 "http://www.w3.org/TR/2001/REC-SVG-20010904/DTD/svg10.dtd">
<svg version="1.0" xmlns="http://www.w3.org/2000/svg"
 width="1641.000000pt" height="568.000000pt" viewBox="0 0 1641.000000 568.000000"
 preserveAspectRatio="xMidYMid meet">

<g transform="translate(0.000000,568.000000) scale(0.100000,-0.100000)"
fill="#000000" stroke="none">
<path d="M0 2840 l0 -2840 8205 0 8205 0 0 2840 0 2840 -8205 0 -8205 0 0
-2840z m8810 2535 c104 -20 223 -35 276 -35 25 0 61 -8 82 -19 57 -29 108 -41
221 -51 123 -11 193 -32 220 -66 11 -14 29 -24 45 -24 60 0 382 -178 401 -222
6 -13 52 -51 104 -85 112 -73 176 -131 195 -176 7 -19 61 -84 120 -145 58 -61
106 -116 106 -123 0 -6 20 -43 45 -83 72 -116 222 -456 207 -470 -3 -3 13 -45
36 -94 91 -197 114 -318 142 -767 21 -338 14 -476 -36 -731 -13 -67 -24 -131
-24 -142 0 -11 -4 -22 -9 -24 -5 -1 -14 -51 -20 -110 -13 -117 -23 -155 -57
-208 -14 -22 -24 -57 -27 -96 -6 -76 -32 -135 -85 -195 -31 -35 -45 -62 -56
-108 -21 -92 -145 -280 -230 -351 -53 -43 -78 -74 -97 -116 -22 -48 -34 -60
-72 -69 -17 -5 -39 -24 -57 -50 -48 -70 -142 -147 -259 -213 -134 -77 -304
-157 -351 -167 -19 -4 -94 -31 -166 -61 -152 -62 -192 -72 -334 -84 -366 -32
-709 -41 -1708 -46 -857 -4 -1044 -7 -1095 -19 -168 -40 -247 1 -247 128 0 70
8 72 192 69 255 -4 399 21 466 83 35 32 37 36 34 92 -1 32 -6 1048 -10 2258
-8 2272 -7 2252 -46 2284 -10 8 -69 8 -217 1 -112 -5 -241 -10 -287 -10 -79 0
-85 2 -113 29 -22 22 -29 39 -29 68 0 60 18 110 50 136 l29 25 682 1 c375 0
683 2 685 3 1 2 276 2 611 0 479 -2 624 -5 683 -17z m5170 -3 c63 -12 150 -24
193 -26 54 -3 101 -14 156 -35 57 -22 107 -33 192 -40 136 -12 182 -26 220
-63 15 -15 37 -28 48 -28 60 0 373 -171 393 -215 5 -12 61 -57 123 -99 111
-75 185 -143 185 -170 0 -8 52 -69 115 -136 63 -67 115 -128 115 -135 0 -8 14
-34 31 -59 16 -25 59 -105 94 -178 56 -118 80 -179 138 -348 8 -25 31 -84 51
-132 50 -118 75 -222 86 -358 6 -63 15 -164 20 -225 19 -223 23 -463 11 -583
-14 -124 -52 -343 -75 -427 -8 -27 -17 -82 -20 -120 -7 -86 -29 -164 -54 -191
-13 -13 -21 -41 -24 -85 -6 -78 -37 -152 -83 -199 -38 -39 -65 -96 -65 -135 0
-47 -118 -223 -213 -317 -49 -50 -98 -109 -112 -137 -19 -38 -34 -52 -64 -65
-25 -10 -50 -31 -69 -59 -39 -55 -97 -107 -180 -162 -88 -56 -377 -196 -472
-227 -41 -14 -122 -44 -180 -66 -123 -48 -175 -57 -400 -72 -410 -26 -617 -31
-1583 -36 -852 -4 -1039 -7 -1090 -19 -87 -21 -155 -19 -194 5 -36 22 -48 40
-57 92 -17 96 18 113 208 103 215 -12 387 19 454 82 l35 33 -7 97 c-4 54 -9
1059 -11 2233 -4 1503 -8 2154 -16 2198 -8 41 -17 66 -29 72 -11 6 -117 5
-281 -2 -145 -6 -276 -8 -291 -5 -47 12 -68 44 -68 104 0 30 6 69 14 88 28 65
0 63 750 64 373 0 680 2 682 3 1 2 274 3 606 2 573 -1 609 -2 718 -22z
m-12640 -857 c0 -132 3 -177 13 -179 115 -34 167 -54 214 -83 l57 -34 126 126
125 125 55 -55 55 -55 -128 -128 c-122 -122 -127 -128 -112 -149 31 -45 64
-120 80 -185 l17 -68 182 -2 181 -3 0 -75 0 -75 -184 -5 -184 -5 -17 -62 c-9
-34 -35 -92 -57 -130 l-40 -68 131 -132 131 -133 -55 -55 -55 -55 -132 132
-132 131 -63 -33 c-35 -19 -94 -43 -133 -55 l-70 -22 -3 -187 -2 -187 -78 3
-77 3 -3 186 -2 186 -86 28 c-47 15 -104 40 -127 56 l-42 28 -135 -134 -135
-135 -55 55 -55 55 133 133 133 133 -36 60 c-20 32 -46 92 -57 131 l-22 73
-185 2 -186 3 -3 77 -3 78 187 2 187 3 13 55 c15 66 37 119 71 173 l25 40
-126 126 c-69 69 -126 131 -126 137 0 6 23 33 51 59 l51 48 128 -128 128 -128
58 36 c55 33 170 77 201 77 10 0 13 35 13 173 0 96 3 177 7 180 3 4 39 7 80 7
l73 0 0 -175z m1486 -1097 c-36 -68 -98 -184 -138 -258 l-73 -135 -213 -3
c-116 -1 -212 0 -212 4 0 3 62 120 138 260 l137 254 213 0 214 0 -66 -122z
m564 116 c0 -4 -62 -121 -137 -260 l-137 -254 -193 0 c-106 0 -193 3 -193 7 0
3 62 120 137 260 l136 253 194 0 c106 0 193 -3 193 -6z m549 -10 c2 -1 -57
-114 -131 -251 l-134 -248 -223 -3 c-123 -1 -221 1 -219 6 8 20 262 488 270
499 8 9 61 11 221 6 117 -3 214 -7 216 -9z m-1499 -821 l-117 -218 -212 -3
c-116 -1 -211 1 -211 4 0 6 114 222 197 372 l35 62 213 0 213 0 -118 -217z
m575 130 c-26 -49 -79 -148 -119 -220 l-71 -133 -198 0 -199 0 20 33 c11 17
54 97 97 177 43 80 88 164 102 188 l24 42 195 0 196 0 -47 -87z m595 80 c0 -5
-51 -102 -114 -218 l-114 -210 -221 -3 c-122 -1 -221 0 -221 2 0 3 52 102 116
221 l117 215 218 0 c121 0 219 -3 219 -7z m-1350 -539 c0 -4 -51 -100 -112
-215 l-113 -209 -213 0 -212 0 21 43 c28 55 155 290 186 345 l24 42 209 0
c116 0 210 -3 210 -6z m482 -46 c-16 -29 -68 -126 -116 -215 l-88 -163 -195 0
c-114 0 -193 4 -191 9 2 5 53 102 113 215 l110 205 198 1 199 0 -30 -52z m578
46 c0 -3 -51 -99 -112 -214 l-113 -210 -223 0 -224 0 35 63 c19 34 71 131 116
215 l82 152 220 0 c120 0 219 -3 219 -6z m652 -251 l3 -118 172 -3 172 -2 20
-27 c26 -32 27 -64 2 -94 -19 -23 -25 -24 -193 -29 l-173 -5 -3 -77 -3 -78
160 0 c98 0 170 -4 185 -11 31 -14 49 -57 40 -93 -12 -47 -46 -56 -224 -56
l-160 0 0 -105 0 -105 -42 0 c-195 1 -409 172 -443 353 l-7 37 -257 0 -258 0
-112 -210 -112 -210 -220 0 c-120 0 -219 3 -219 7 0 9 246 467 276 516 l24 37
439 0 439 0 6 33 c19 101 116 223 225 285 68 38 172 70 228 71 l32 1 3 -117z
m-2015 -315 c-13 -24 -81 -150 -151 -280 l-128 -238 -210 0 c-165 0 -209 3
-206 13 2 7 68 133 146 280 l144 267 215 0 215 0 -25 -42z m520 30 c-3 -7 -70
-132 -149 -278 l-143 -265 -199 -3 -198 -2 40 72 c21 40 90 166 151 281 l113
207 195 0 c152 0 194 -3 190 -12z"/>
<path d="M8593 5263 c15 -2 39 -2 55 0 15 2 2 4 -28 4 -30 0 -43 -2 -27 -4z"/>
<path d="M8883 5263 c9 -2 25 -2 35 0 9 3 1 5 -18 5 -19 0 -27 -2 -17 -5z"/>
<path d="M8946 5245 c4 -8 11 -15 16 -15 6 0 5 6 -2 15 -7 8 -14 15 -16 15 -2
0 -1 -7 2 -15z"/>
<path d="M7830 5083 c-23 -74 -39 -247 -40 -415 0 -70 -5 -123 -15 -153 -9
-25 -13 -50 -9 -57 7 -11 13 -841 12 -1708 -1 -1115 0 -1362 5 -1500 2 -80 0
-236 -5 -348 -15 -295 6 -443 67 -458 44 -11 786 3 843 16 28 6 52 15 52 18 0
4 25 5 55 4 42 -3 67 2 110 22 32 14 91 30 135 35 97 13 136 29 178 75 18 19
54 45 79 56 70 31 142 88 164 131 12 24 39 52 69 72 38 24 48 36 44 51 -4 13
9 33 46 71 42 42 53 60 57 96 4 24 17 60 29 79 13 20 28 56 33 80 6 25 22 83
36 130 34 112 90 393 111 555 12 96 15 171 10 290 -6 165 5 327 23 349 7 8 8
29 3 57 -5 24 -4 89 1 144 6 66 6 195 -2 375 -32 804 -146 1276 -377 1569 -81
103 -265 261 -303 261 -15 0 -58 18 -95 41 -113 68 -118 69 -415 90 -253 17
-702 38 -828 39 l-52 0 -21 -67z"/>
<path d="M6150 380 c0 -17 33 -29 52 -19 29 16 21 29 -17 29 -19 0 -35 -4 -35
-10z"/>
<path d="M6198 273 c12 -2 32 -2 45 0 12 2 2 4 -23 4 -25 0 -35 -2 -22 -4z"/>
<path d="M11615 5260 c-3 -5 -1 -10 4 -10 6 0 11 5 11 10 0 6 -2 10 -4 10 -3
0 -8 -4 -11 -10z"/>
<path d="M13733 5263 c15 -2 37 -2 50 0 12 2 0 4 -28 4 -27 0 -38 -2 -22 -4z"/>
<path d="M14048 5263 c7 -3 16 -2 19 1 4 3 -2 6 -13 5 -11 0 -14 -3 -6 -6z"/>
<path d="M14080 5251 c0 -5 5 -13 10 -16 6 -3 10 -2 10 4 0 5 -4 13 -10 16 -5
3 -10 2 -10 -4z"/>
<path d="M12971 5103 c-27 -103 -32 -142 -37 -323 -4 -120 -11 -215 -20 -247
-10 -38 -12 -67 -5 -115 9 -63 9 -96 -4 -418 -4 -107 -3 -192 4 -219 5 -25 6
-52 2 -60 -5 -9 -5 -47 0 -86 5 -38 5 -73 0 -78 -4 -4 -4 -31 2 -60 6 -33 7
-306 2 -737 -4 -377 -7 -728 -7 -780 0 -52 0 -149 -1 -215 -1 -206 0 -263 7
-525 4 -145 3 -316 -2 -395 -8 -107 -7 -165 4 -244 14 -111 30 -147 69 -157
43 -11 786 3 843 16 28 6 52 15 52 18 0 4 25 5 55 4 44 -3 67 1 108 21 29 15
87 30 132 36 111 15 139 27 170 67 16 20 53 47 92 67 76 37 158 106 167 141 3
14 26 37 56 56 39 25 49 37 45 51 -5 14 7 31 44 65 48 44 79 104 65 126 -3 5
6 27 21 48 15 22 34 63 41 92 7 29 22 85 34 123 23 80 62 258 92 425 16 92 22
176 27 425 3 171 10 316 15 324 14 22 19 499 7 725 -35 656 -141 1110 -322
1377 -89 132 -288 314 -362 331 -23 5 -62 22 -87 38 -100 64 -125 70 -358 85
-481 32 -545 35 -739 35 l-202 0 -10 -37z"/>
<path d="M11290 381 c0 -5 7 -14 16 -21 13 -11 19 -10 37 8 l21 22 -37 0 c-20
0 -37 -4 -37 -9z"/>
<path d="M11396 353 c-6 -14 -5 -15 5 -6 7 7 10 15 7 18 -3 3 -9 -2 -12 -12z"/>
<path d="M13440 280 c0 -5 5 -10 10 -10 6 0 10 5 10 10 0 6 -4 10 -10 10 -5 0
-10 -4 -10 -10z"/>
<path d="M11328 273 c12 -2 32 -2 45 0 12 2 2 4 -23 4 -25 0 -35 -2 -22 -4z"/>
<path d="M1145 4161 c-134 -38 -236 -139 -276 -273 -74 -244 82 -500 327 -538
189 -29 366 64 450 237 36 73 45 209 20 296 -63 216 -299 342 -521 278z"/>
</g>
</svg>
